<mxfile host="app.diagrams.net" modified="2023-09-20T18:56:58.720Z" agent="Mozilla/5.0 (Windows NT 10.0; Win64; x64; rv:109.0) Gecko/20100101 Firefox/117.0" version="21.8.0" etag="jAa7-k1LH3-X0sSMp1ql" type="github">
  <diagram name="PÃ¡gina-1" id="o_qnCf-ymsOC3qUYbzpw">
    <mxGraphModel>
      <root>
        <mxCell id="0" />
        <mxCell id="1" parent="0" />
      </root>
    </mxGraphModel>
  </diagram>
</mxfile>
